<svg height="512" viewBox="0 0 128 128" width="512" xmlns="http://www.w3.org/2000/svg"><g id="Circle_Grid" data-name="Circle Grid"><circle cx="64" cy="64" fill="#2cbfae" r="64"/></g><g id="icon"><path d="m106.5 61.88a14.907 14.907 0 0 1 -14.912 14.911h-55.176a14.912 14.912 0 1 1 0-29.823 14.619 14.619 0 0 1 2.712.255 1.705 1.705 0 0 1 -.013-.255 14.91 14.91 0 0 1 27.646-7.755 11.941 11.941 0 0 1 21.024 7.755c0 .166 0 .331-.013.5a14.915 14.915 0 0 1 18.732 14.412z" fill="#eeefee"/><path d="m87.395 73.239h-6.151v22.704h-10.187v-22.704h-6.151l11.244-15.078z" fill="#ef5261"/><path d="m63.094 80.866h-6.151v-22.705h-10.187v22.705h-6.151l11.245 15.077z" fill="#f6c863"/></g></svg>