<svg id="Capa_1" enable-background="new 0 0 512 512" height="512" viewBox="0 0 512 512" width="512" xmlns="http://www.w3.org/2000/svg"><g><path d="m13.603 269.65c-7.477 0-13.599-6.035-13.603-13.513 0-.046 0-.092 0-.137 0-141.385 114.615-256 256-256s256 114.615 256 256v.137c-.004 7.477-6.125 13.513-13.603 13.513z" fill="#865cb2"/><path d="m512 256c0 52.67-15.906 101.625-43.177 142.324h-118.767c-62.401 0-112.987 50.586-112.987 112.987h37.862c-6.25.457-12.564.689-18.931.689-58.119 0-111.714-19.367-154.684-52v-33.464c0-59.44-40.066-111.411-97.549-126.536-2.476-14.295-3.767-28.997-3.767-44 0-2.005.023-4.005.069-6h511.862c.046 1.995.069 3.995.069 6z" fill="#754ca0"/><path d="m250 315v130c0 8.284-6.716 15-15 15h-133.684c-8.251-6.266-16.11-13.021-23.534-20.222-3.667-3.557-1.13-9.778 3.979-9.778h133.239c2.761 0 5-2.239 5-5v-90c0-2.761-2.239-5-5-5h-194.136c-5.999 0-11.262-4.044-12.76-9.853-1.708-6.616-3.157-13.335-4.337-20.147h231.233c8.284 0 15 6.716 15 15z" fill="#fdbcbc"/><path d="m230 325v110c0 2.761-2.239 5-5 5h-146.989c-33.385-32.301-58.005-73.605-69.946-120h216.935c2.761 0 5 2.239 5 5z" fill="#fff5f5"/><path d="m170 355c0-12.15 9.85-22 22-22s22 9.85 22 22-9.85 22-22 22-22-9.85-22-22zm22 31c-12.15 0-22 9.85-22 22s9.85 22 22 22 22-9.85 22-22-9.85-22-22-22zm-58-53c-12.15 0-22 9.85-22 22s9.85 22 22 22 22-9.85 22-22-9.85-22-22-22zm0 53c-12.15 0-22 9.85-22 22s9.85 22 22 22 22-9.85 22-22-9.85-22-22-22zm-58-53c-12.15 0-22 9.85-22 22s9.85 22 22 22 22-9.85 22-22-9.85-22-22-22zm0 53c-12.15 0-22 9.85-22 22 0 2.279.346 4.477.99 6.544 3.542 4.484 7.23 8.847 11.059 13.082 2.988 1.518 6.369 2.374 9.951 2.374 12.15 0 22-9.85 22-22s-9.85-22-22-22zm-58-53c-2.065 0-4.063.285-5.958.817 4.464 14.006 10.101 27.489 16.795 40.333 6.665-3.78 11.163-10.94 11.163-19.15 0-12.15-9.85-22-22-22z" fill="#fdbcbc"/><path d="m260 250c0 4.142-3.358 7.5-7.5 7.5h-5v5c0 4.142-3.358 7.5-7.5 7.5s-7.5-3.358-7.5-7.5v-5h-5c-4.142 0-7.5-3.358-7.5-7.5 0-4.142 3.358-7.5 7.5-7.5h5v-5c0-4.142 3.358-7.5 7.5-7.5s7.5 3.358 7.5 7.5v5h5c4.142 0 7.5 3.358 7.5 7.5z" fill="#a6e0ec"/><path d="m151.743 123.505c-3.774-16.1 6.219-32.21 22.318-35.984l154.767-36.275 13.665 58.302-154.767 36.275c-16.099 3.774-32.209-6.218-35.983-22.318z" fill="#a6e0ec"/><path d="m150.967 117.746c-.518-14.02 8.921-26.902 23.094-30.224l154.767-36.275 13.665 58.302-8.334 1.954-8.153-34.783z" fill="#7cd2e3"/><path d="m.797 158.885c-3.774-16.1 6.219-32.21 22.318-35.984l164.579-38.575 13.665 58.302-164.579 38.575c-16.099 3.774-32.21-6.218-35.983-22.318z" fill="#9bcf1b"/><path d="m49.595 141.506 143.612-33.66 8.153 34.783-143.612 33.66c-9.605 2.251-19.217-3.71-21.468-13.315-2.251-9.606 3.71-19.217 13.315-21.468z" fill="#b9e746"/><path d="m280.356 374.15c-6.515 0-10.319-7.349-6.557-12.668l17.708-25.043c23.879-33.77 36.701-74.111 36.701-115.47v-63.929h59.882v63.54c0 41.359 12.822 81.701 36.701 115.47l17.68 25.004c3.888 5.499-.044 13.096-6.779 13.096z" fill="#a6e0ec"/><path d="m308.011 374.15h-27.656c-6.515 0-10.319-7.349-6.557-12.668l17.708-25.043c23.879-33.77 36.701-74.111 36.701-115.47v-63.929h27.656v63.929c0 41.359-12.822 81.701-36.701 115.47l-17.708 25.043c-3.762 5.32.042 12.668 6.557 12.668z" fill="#7cd2e3"/><path d="m330.466 123.784-18.738-79.946c-1.26-5.377 2.077-10.758 7.454-12.018 5.377-1.26 10.758 2.077 12.018 7.454l18.738 79.946c1.26 5.377-2.077 10.758-7.454 12.018-5.377 1.26-10.758-2.077-12.018-7.454zm78.738 38.216c0-5.523-4.477-10-10-10h-82.112c-5.523 0-10 4.477-10 10 0 5.523 4.477 10 10 10h82.112c5.523 0 10-4.477 10-10z" fill="#c2eaf2"/><path d="m256 512c-6.367 0-12.68-.232-18.931-.689-27.686-5.146-42.312-38.047-25.089-62.405l62.867-88.906h166.877l27.099 38.324c-45.934 68.55-124.108 113.676-212.823 113.676z" fill="#ffc14f"/><path d="m464.008 180c0 4.142-3.358 7.5-7.5 7.5h-5v5c0 4.142-3.358 7.5-7.5 7.5s-7.5-3.358-7.5-7.5v-5h-5c-4.142 0-7.5-3.358-7.5-7.5 0-4.142 3.358-7.5 7.5-7.5h5v-5c0-4.142 3.358-7.5 7.5-7.5s7.5 3.358 7.5 7.5v5h5c4.142 0 7.5 3.358 7.5 7.5zm-253.128-66.247c-1.26-5.377 2.077-10.758 7.454-12.018l62.449-14.637c5.377-1.26 10.758 2.077 12.018 7.454 1.26 5.377-2.077 10.758-7.454 12.018l-62.449 14.637c-5.377 1.26-10.758-2.077-12.018-7.454zm161.268 186.247v-88c0-5.523-4.477-10-10-10-5.523 0-10 4.477-10 10v88c0 5.523 4.477 10 10 10 5.523 0 10-4.477 10-10z" fill="#fff5f5"/><path d="m149 408c0 8.284-6.716 15-15 15s-15-6.716-15-15 6.716-15 15-15 15 6.716 15 15z" fill="#d63030"/><path d="m207 355c0 8.284-6.716 15-15 15s-15-6.716-15-15 6.716-15 15-15 15 6.716 15 15zm-131-15c-8.284 0-15 6.716-15 15s6.716 15 15 15 15-6.716 15-15-6.716-15-15-15z" fill="#fd9a9a"/><path d="m149 355c0 8.284-6.716 15-15 15s-15-6.716-15-15 6.716-15 15-15 15 6.716 15 15zm-73 38c-8.284 0-15 6.716-15 15s6.716 15 15 15 15-6.716 15-15-6.716-15-15-15z" fill="#fb5858"/><path d="m207 408c0 8.284-6.716 15-15 15s-15-6.716-15-15 6.716-15 15-15 15 6.716 15 15zm-189-68c-1.29 0-2.542.163-3.737.469 3.285 9.401 7.103 18.553 11.417 27.417 4.384-2.617 7.32-7.409 7.32-12.886 0-8.284-6.716-15-15-15z" fill="#fc7979"/><path d="m270.563 511.593c-4.82.27-9.675.407-14.563.407-6.367 0-12.68-.232-18.931-.689-27.686-5.146-42.312-38.047-25.089-62.405l62.867-88.906h29.118l-62.866 88.906c-17.224 24.358-2.597 57.259 25.089 62.405 1.454.106 2.913.2 4.375.282zm115.252-163.593c-11.046 0-20 8.954-20 20s8.954 20 20 20 20-8.954 20-20-8.955-20-20-20zm-30-15c0 8.284-6.716 15-15 15s-15-6.716-15-15 6.716-15 15-15 15 6.716 15 15z" fill="#ffa90b"/><path d="m408.148 384c0 5.523-4.477 10-10 10s-10-4.477-10-10 4.477-10 10-10 10 4.477 10 10zm-105.081 42c-5.523 0-10 4.477-10 10s4.477 10 10 10 10-4.477 10-10-4.477-10-10-10zm33.63 24c-5.523 0-10 4.477-10 10s4.477 10 10 10 10-4.477 10-10-4.478-10-10-10z" fill="#ffd993"/><path d="m372.148 91.812c0 5.523-4.477 10-10 10s-10-4.477-10-10 4.477-10 10-10 10 4.477 10 10zm27.344 2c-5.523 0-10 4.477-10 10s4.477 10 10 10 10-4.477 10-10-4.477-10-10-10zm-17.344 47.322c-5.523 0-10 4.477-10 10s4.477 10 10 10 10-4.477 10-10-4.477-10-10-10z" fill="#9bcf1b"/><path d="m176 127.746c0 5.523-4.477 10-10 10s-10-4.477-10-10 4.477-10 10-10 10 4.477 10 10zm-95-10c-5.523 0-10 4.477-10 10s4.477 10 10 10 10-4.477 10-10-4.477-10-10-10zm-32.344 23.388c-5.523 0-10 4.477-10 10s4.477 10 10 10 10-4.477 10-10-4.477-10-10-10z" fill="#84b017"/></g></svg>